if (_typeface_js && _typeface_js.loadFace) _typeface_js.loadFace({"glyphs":{"S":{"x_min":45.875,"x_max":601.21875,"ha":692,"o":"m 45 166 b 316 -26 97 38 188 -26 b 601 263 492 -26 601 86 b 392 556 601 413 535 477 b 177 776 266 627 177 655 b 334 936 177 873 237 936 b 486 848 405 936 459 905 l 554 890 b 339 1016 510 973 437 1016 b 88 777 190 1016 88 918 b 331 493 88 638 177 575 b 516 263 446 431 516 386 b 320 54 516 130 443 54 b 122 208 225 54 149 109 l 45 166 "},"¦":{"x_min":310.328125,"x_max":370.21875,"ha":694,"o":"m 370 970 l 310 970 l 310 456 l 370 456 l 370 970 m 370 276 l 310 276 l 310 -237 l 370 -237 l 370 276 "},"/":{"x_min":0,"x_max":548.53125,"ha":560,"o":"m 476 1015 l 0 -129 l 72 -129 l 548 1015 l 476 1015 "},"y":{"x_min":29,"x_max":527,"ha":560,"o":"m 29 601 l 241 4 l 137 -302 l 222 -302 l 527 601 l 439 601 l 284 130 l 116 601 l 29 601 "},"Ž":{"x_min":16,"x_max":746,"ha":778,"o":"m 16 0 l 687 0 l 687 83 l 169 83 l 746 993 l 100 993 l 100 911 l 594 911 l 16 0 m 570 1327 l 508 1327 l 380 1158 l 251 1327 l 190 1327 l 331 1090 l 428 1090 l 570 1327 "},"Á":{"x_min":-12,"x_max":825,"ha":829,"o":"m -12 0 l 77 0 l 207 336 l 604 336 l 728 0 l 825 0 l 415 1031 l -12 0 m 237 413 l 410 845 l 575 413 l 237 413 m 319 1090 l 381 1090 l 569 1327 l 460 1327 l 319 1090 "},"g":{"x_min":59.875,"x_max":627.453125,"ha":751,"o":"m 345 547 b 545 304 466 547 545 461 b 337 51 545 141 455 51 b 148 297 221 51 148 138 b 345 547 148 452 223 547 m 627 601 l 544 601 l 544 488 b 336 623 514 565 431 623 b 59 298 170 623 59 494 b 332 -26 59 93 172 -26 b 544 111 428 -26 510 26 l 544 20 b 544 -20 544 5 544 -8 b 517 -154 544 -72 541 -115 b 353 -227 488 -198 426 -227 b 186 -118 257 -227 200 -190 l 84 -115 b 347 -302 104 -241 190 -302 b 600 -169 476 -302 560 -256 b 627 100 622 -122 627 -31 b 627 104 627 102 627 102 l 627 601 "},"²":{"x_min":31.3125,"x_max":446.4375,"ha":528,"o":"m 443 437 l 149 437 l 291 576 b 446 826 382 668 446 729 b 247 991 446 925 368 991 b 44 808 122 991 44 922 b 44 802 44 806 44 804 l 102 802 b 102 805 102 804 102 804 b 242 943 102 891 157 943 b 383 822 326 943 383 893 b 170 530 383 736 298 661 l 31 390 l 443 390 l 443 437 "},"–":{"x_min":0,"x_max":680.5625,"ha":694,"o":"m 0 326 l 0 272 l 680 272 l 680 326 l 0 326 "},"ë":{"x_min":58.53125,"x_max":619.3125,"ha":690,"o":"m 615 298 b 615 319 615 305 615 312 b 345 623 615 506 504 623 b 58 294 178 623 58 494 b 348 -26 58 105 175 -26 b 619 151 475 -26 559 29 l 544 193 b 348 48 499 97 436 48 b 147 298 231 48 149 141 l 615 298 m 518 369 l 152 369 b 334 543 161 475 239 543 b 518 369 443 543 511 480 m 157 805 b 221 740 157 768 185 740 b 287 805 258 740 287 768 b 221 872 287 840 257 872 b 157 805 187 872 157 840 m 390 805 b 455 740 390 768 419 740 b 519 805 492 740 519 768 b 455 872 519 840 491 872 b 390 805 421 872 390 840 "},"ƒ":{"x_min":124,"x_max":649,"ha":800,"o":"m 438 559 l 570 559 l 574 623 l 444 623 l 457 741 b 564 926 469 861 480 926 b 635 911 586 926 608 920 l 649 983 b 564 1002 621 997 594 1002 b 371 747 435 1002 390 922 l 357 623 l 249 623 l 242 559 l 351 559 l 296 58 b 185 -223 276 -134 265 -223 b 144 -215 170 -223 158 -222 l 124 -295 b 185 -305 149 -301 170 -305 b 379 16 318 -305 355 -205 l 438 559 "},"Î":{"x_min":-24,"x_max":356,"ha":338,"o":"m 121 0 l 210 0 l 210 993 l 121 993 l 121 0 m -24 1090 l 37 1090 l 166 1259 l 294 1090 l 356 1090 l 214 1327 l 117 1327 l -24 1090 "},"e":{"x_min":58.53125,"x_max":619.3125,"ha":690,"o":"m 615 298 b 615 319 615 305 615 312 b 345 623 615 506 504 623 b 58 294 178 623 58 494 b 348 -26 58 105 175 -26 b 619 151 475 -26 559 29 l 544 193 b 348 48 499 97 436 48 b 147 298 231 48 149 141 l 615 298 m 518 369 l 152 369 b 334 543 161 475 239 543 b 518 369 443 543 511 480 "},"Ã":{"x_min":-12,"x_max":825,"ha":829,"o":"m -12 0 l 78 0 l 208 336 l 606 336 l 729 0 l 825 0 l 416 1031 l -12 0 m 237 413 l 410 845 l 577 413 l 237 413 m 602 1269 l 543 1269 b 478 1223 530 1238 510 1223 b 437 1230 466 1223 451 1226 l 386 1248 b 346 1254 373 1252 360 1254 b 215 1133 280 1254 233 1212 l 272 1133 b 334 1175 286 1161 305 1175 b 372 1169 346 1175 360 1173 l 425 1151 b 469 1144 439 1147 453 1144 b 602 1269 532 1144 580 1187 "},"J":{"x_min":4.078125,"x_max":398.8125,"ha":518,"o":"m 310 272 b 189 59 310 133 285 59 b 66 134 142 59 103 84 l 4 76 b 191 -26 44 9 108 -26 b 398 213 325 -26 398 54 l 398 993 l 310 993 l 310 272 "},"»":{"x_min":30,"x_max":490,"ha":531,"o":"m 322 33 l 490 295 l 328 564 l 270 527 l 409 294 l 266 69 l 322 33 m 84 33 l 251 295 l 89 564 l 32 527 l 172 294 l 30 69 l 84 33 "},"©":{"x_min":81.671875,"x_max":1052.140625,"ha":1157,"o":"m 566 984 b 225 841 434 984 315 934 b 81 488 132 744 81 619 b 224 140 81 356 132 234 b 566 -6 317 45 436 -6 b 911 141 694 -6 816 45 b 1052 488 1003 233 1052 352 b 911 838 1052 622 1003 745 b 566 984 819 933 698 984 m 1004 488 b 877 176 1004 366 959 258 b 566 43 792 90 680 43 b 258 175 450 43 341 90 b 129 488 175 259 129 370 b 259 806 129 606 175 719 b 566 936 340 890 447 936 b 877 804 684 936 793 890 b 1004 488 959 720 1004 609 m 718 622 l 788 622 b 571 797 777 725 688 797 b 313 491 419 797 313 680 b 563 181 313 297 413 181 b 794 370 690 181 785 259 l 726 370 b 567 240 710 290 647 240 b 390 487 460 240 390 331 b 567 738 390 648 457 738 b 718 622 645 738 700 695 "},"˘":{"x_min":158,"x_max":523,"ha":694,"o":"m 158 870 b 340 708 170 756 226 708 b 523 870 454 708 510 756 l 468 870 b 340 783 458 808 419 783 b 211 870 261 783 220 809 l 158 870 "},"ò":{"x_min":60.109375,"x_max":699.390625,"ha":775,"o":"m 377 -26 b 699 300 553 -26 699 118 b 376 623 699 480 556 623 b 60 300 201 623 60 480 b 377 -26 60 116 204 -26 m 379 51 b 148 298 251 51 148 159 b 379 545 148 438 250 545 b 610 298 507 545 610 438 b 379 51 610 158 506 51 m 468 698 l 326 936 l 218 936 l 405 698 l 468 698 "},"^":{"x_min":282,"x_max":1078.25,"ha":1389,"o":"m 718 988 l 639 988 l 282 611 l 365 611 l 680 929 l 995 611 l 1078 611 l 718 988 "},"«":{"x_min":29.984375,"x_max":490,"ha":531,"o":"m 197 33 l 251 69 l 110 294 l 249 527 l 191 564 l 29 295 l 197 33 m 435 33 l 490 69 l 347 294 l 487 527 l 430 564 l 266 295 l 435 33 "},"D":{"x_min":121.140625,"x_max":872.46875,"ha":968,"o":"m 121 0 l 272 0 b 313 0 285 0 299 0 b 707 91 469 0 596 4 b 872 495 812 173 872 315 b 672 927 872 694 798 848 b 272 993 568 993 439 993 l 121 993 l 121 0 m 209 77 l 209 918 l 288 918 b 314 918 296 918 306 918 b 679 813 477 918 589 915 b 778 497 743 741 778 633 b 631 134 778 329 724 202 b 340 77 558 80 462 77 b 288 77 323 77 306 77 l 209 77 "},"ł":{"x_min":-13.609375,"x_max":345.71875,"ha":339,"o":"m 208 563 l 208 1051 l 123 1051 l 123 512 l -13 412 l 24 356 l 123 430 l 123 0 l 208 0 l 208 480 l 345 580 l 308 636 l 208 563 "},"ÿ":{"x_min":29,"x_max":527,"ha":560,"o":"m 29 601 l 241 4 l 137 -302 l 222 -302 l 527 601 l 439 601 l 284 130 l 116 601 l 29 601 m 94 805 b 158 740 94 768 121 740 b 223 805 195 740 223 768 b 158 872 223 840 193 872 b 94 805 124 872 94 840 m 326 805 b 392 740 326 768 355 740 b 456 805 429 740 456 768 b 392 872 456 840 427 872 b 326 805 358 872 326 840 "},"Ł":{"x_min":-44.921875,"x_max":549.890625,"ha":581,"o":"m 127 0 l 549 0 l 549 84 l 216 84 l 216 504 l 416 645 l 374 704 l 216 591 l 216 993 l 127 993 l 127 543 l -44 418 l -1 363 l 127 455 l 127 0 "},"í":{"x_min":68,"x_max":318,"ha":319,"o":"m 114 0 l 198 0 l 198 601 l 114 601 l 114 0 m 68 698 l 130 698 l 318 936 l 209 936 l 68 698 "},"ˆ":{"x_min":150,"x_max":530,"ha":694,"o":"m 150 698 l 211 698 l 340 868 l 468 698 l 530 698 l 388 936 l 291 936 l 150 698 "},"w":{"x_min":15.671875,"x_max":865,"ha":900,"o":"m 251 -26 l 441 440 l 629 -26 l 865 601 l 779 601 l 625 168 l 440 633 l 255 168 l 101 601 l 15 601 l 251 -26 "},"$":{"x_min":105.875,"x_max":661.21875,"ha":800,"o":"m 421 -114 l 421 1 b 661 284 570 24 661 136 b 421 573 661 425 587 491 l 421 917 b 546 835 477 912 522 883 l 616 873 b 421 994 574 946 512 983 l 421 1061 l 368 1061 l 368 993 b 148 766 228 973 148 886 b 368 507 148 652 218 582 l 368 77 b 182 224 273 85 209 135 l 105 186 b 368 4 157 66 246 4 l 368 -114 l 421 -114 m 421 79 l 421 482 b 576 277 527 430 576 369 b 421 79 576 166 516 91 m 368 917 l 368 598 b 236 769 278 643 236 693 b 368 917 236 840 289 905 "},"\\":{"x_min":0.46875,"x_max":549,"ha":560,"o":"m 476 -129 l 549 -129 l 72 1015 l 0 1015 l 476 -129 "},"Ì":{"x_min":4,"x_max":254,"ha":338,"o":"m 120 0 l 209 0 l 209 993 l 120 993 l 120 0 m 254 1090 l 112 1327 l 4 1327 l 191 1090 l 254 1090 "},"µ":{"x_min":-73,"x_max":680,"ha":742,"o":"m 217 720 l 136 720 l -73 -287 l 7 -287 l 86 97 b 268 -19 114 23 181 -19 b 475 97 364 -19 437 22 b 473 66 474 86 473 75 b 561 -19 473 8 501 -19 b 611 -11 575 -19 592 -15 l 624 54 b 598 52 609 52 601 52 b 553 95 568 52 553 68 b 569 187 553 111 560 141 l 680 720 l 599 720 l 516 336 b 279 50 475 145 388 50 b 124 225 178 50 124 111 b 135 320 124 255 128 286 l 217 720 "},"Ç":{"x_min":74.859375,"x_max":903.78125,"ha":993,"o":"m 901 811 l 903 911 b 586 1015 816 980 710 1015 b 74 495 298 1015 74 801 b 586 -26 74 183 294 -26 b 895 66 687 -26 801 5 l 896 172 b 582 56 803 95 694 56 b 170 495 348 56 170 230 b 594 936 170 752 340 936 b 901 811 709 936 805 894 m 431 -256 b 592 -281 488 -272 541 -281 b 735 -170 687 -281 735 -244 b 593 -68 735 -106 686 -68 b 583 -68 590 -68 586 -68 l 583 0 l 543 0 l 543 -112 b 573 -111 553 -111 563 -111 b 664 -172 634 -111 664 -130 b 581 -231 664 -212 637 -231 b 431 -209 543 -231 492 -222 l 431 -256 "},"’":{"x_min":82,"x_max":311,"ha":400,"o":"m 82 650 l 136 628 l 311 971 l 211 1015 l 82 650 "},"-":{"x_min":91.1875,"x_max":381.109375,"ha":482,"o":"m 91 343 l 91 255 l 381 255 l 381 343 l 91 343 "},"Q":{"x_min":74.859375,"x_max":1124.28125,"ha":1215,"o":"m 1124 -69 l 959 126 b 1116 495 1064 229 1116 351 b 963 863 1116 636 1063 765 b 594 1015 865 961 735 1015 b 227 863 455 1015 325 962 b 74 495 129 765 74 636 b 227 127 74 356 127 226 b 586 -20 323 31 450 -20 b 898 70 703 -20 803 8 l 1016 -69 l 1124 -69 m 615 406 l 841 138 b 597 56 784 88 692 56 b 170 495 356 56 170 251 b 594 936 170 741 359 936 b 1022 495 831 936 1022 740 b 905 191 1022 379 982 279 l 724 406 l 615 406 "},"M":{"x_min":59,"x_max":1076,"ha":1161,"o":"m 565 -38 l 912 758 l 984 0 l 1076 0 l 950 1035 l 564 151 l 191 1035 l 59 0 l 150 0 l 223 758 l 565 -38 "},"C":{"x_min":74.859375,"x_max":903.78125,"ha":993,"o":"m 901 811 l 903 911 b 586 1015 816 980 710 1015 b 74 495 298 1015 74 801 b 586 -26 74 183 294 -26 b 895 66 687 -26 801 5 l 896 172 b 582 56 803 95 694 56 b 170 495 348 56 170 230 b 594 936 170 752 340 936 b 901 811 709 936 805 894 "},"œ":{"x_min":61.25,"x_max":1166.46875,"ha":1249,"o":"m 1162 300 b 1162 316 1162 305 1162 311 b 890 625 1162 505 1052 625 b 647 466 777 625 681 563 b 374 623 594 570 502 623 b 61 300 205 623 61 480 b 378 -25 61 119 197 -25 b 647 134 498 -25 598 33 b 898 -26 677 40 777 -26 b 1166 152 1018 -26 1103 31 l 1088 195 b 888 51 1046 100 980 51 b 694 295 777 51 694 147 b 694 300 694 297 694 298 l 1162 300 m 699 369 b 882 544 706 473 786 544 b 1065 369 989 544 1058 480 l 699 369 m 381 51 b 149 298 253 51 149 159 b 381 547 149 438 251 547 b 612 298 509 547 612 438 b 381 51 612 158 507 51 "},"!":{"x_min":142.921875,"x_max":279.03125,"ha":431,"o":"m 142 43 b 210 -26 142 4 172 -26 b 279 43 249 -26 279 2 b 210 112 279 83 249 112 b 142 43 172 112 142 81 m 170 205 l 251 205 l 251 1015 l 170 1015 l 170 205 "},"ç":{"x_min":61.25,"x_max":578.46875,"ha":633,"o":"m 567 491 l 568 583 b 385 623 521 608 455 623 b 61 293 193 623 61 487 b 368 -29 61 106 187 -29 b 578 20 447 -29 518 -12 l 577 112 b 383 44 515 68 449 44 b 144 287 240 44 144 151 b 383 550 144 444 235 550 b 567 491 449 550 511 530 m 221 -256 b 382 -281 279 -272 332 -281 b 525 -170 477 -281 525 -244 b 383 -68 525 -106 476 -68 b 374 -68 381 -68 377 -68 l 374 0 l 333 0 l 333 -112 b 363 -111 344 -111 353 -111 b 454 -172 424 -111 454 -130 b 371 -231 454 -212 427 -231 b 221 -209 333 -231 283 -222 l 221 -256 "},"È":{"x_min":121.78125,"x_max":603.171875,"ha":713,"o":"m 121 0 l 603 0 l 603 84 l 210 84 l 210 512 l 603 512 l 603 597 l 210 597 l 210 908 l 603 908 l 603 993 l 121 993 l 121 0 m 448 1090 l 306 1327 l 198 1327 l 385 1090 l 448 1090 "},"ﬁ":{"x_min":17.6875,"x_max":548.53125,"ha":656,"o":"m 127 0 l 209 0 l 209 530 l 338 530 l 338 601 l 209 601 l 209 829 b 288 993 209 940 223 993 b 347 976 304 993 325 987 l 362 1050 b 283 1063 334 1059 310 1063 b 127 775 138 1063 127 966 l 127 601 l 17 601 l 17 530 l 127 530 l 127 0 m 443 0 l 528 0 l 528 601 l 443 601 l 443 0 m 423 836 b 485 772 423 801 449 772 b 548 836 522 772 548 801 b 485 900 548 873 519 900 b 423 836 453 900 423 873 "},"{":{"x_min":117.0625,"x_max":563.5,"ha":694,"o":"m 563 941 l 563 1001 b 534 1001 553 1001 544 1001 b 318 745 353 1001 318 934 l 318 583 b 149 388 318 443 274 388 b 117 390 140 388 129 388 l 117 329 b 147 330 127 329 137 330 b 318 136 274 330 318 276 l 318 -26 b 534 -280 318 -215 353 -280 b 563 -280 544 -280 553 -280 l 563 -220 b 537 -220 555 -220 545 -220 b 386 -43 409 -220 386 -177 l 386 120 b 257 359 386 258 367 326 b 386 598 366 391 386 461 l 386 762 b 539 941 386 897 409 941 b 563 941 547 941 555 941 "},"X":{"x_min":-16.015625,"x_max":675,"ha":672,"o":"m 80 0 l 329 440 l 577 0 l 675 0 l 379 525 l 647 993 l 552 993 l 330 598 l 111 993 l 12 993 l 280 522 l -16 0 l 80 0 "},"ô":{"x_min":59.6875,"x_max":699.671875,"ha":775,"o":"m 376 -26 b 699 300 553 -26 699 118 b 376 623 699 480 556 623 b 59 300 201 623 59 480 b 376 -26 59 116 204 -26 m 379 51 b 148 298 251 51 148 159 b 379 545 148 438 250 545 b 611 298 507 545 611 438 b 379 51 611 158 506 51 m 189 698 l 250 698 l 379 868 l 507 698 l 569 698 l 427 936 l 330 936 l 189 698 "},"¼":{"x_min":118.28125,"x_max":1143.640625,"ha":1240,"o":"m 229 428 l 282 428 l 282 978 l 145 978 l 118 934 l 229 934 l 229 428 m 268 -26 l 340 -26 l 949 1002 l 878 1002 l 268 -26 m 1025 0 l 1081 0 l 1081 139 l 1143 139 l 1143 184 l 1081 184 l 1081 569 l 748 139 l 1025 139 l 1025 0 m 1025 184 l 831 184 l 1025 434 l 1025 184 "},"#":{"x_min":86,"x_max":961,"ha":1068,"o":"m 608 986 l 535 986 l 418 648 l 175 648 l 156 587 l 396 587 l 329 395 l 106 395 l 86 334 l 307 334 l 192 0 l 265 0 l 384 334 l 563 334 l 446 0 l 521 0 l 637 334 l 869 334 l 890 395 l 658 395 l 725 587 l 940 587 l 961 648 l 747 648 l 863 986 l 789 986 l 672 648 l 492 648 l 608 986 m 650 587 l 584 395 l 405 395 l 471 587 l 650 587 "},"Ê":{"x_min":120.359375,"x_max":602.4375,"ha":713,"o":"m 120 0 l 602 0 l 602 84 l 208 84 l 208 512 l 602 512 l 602 597 l 208 597 l 208 908 l 602 908 l 602 993 l 120 993 l 120 0 m 168 1090 l 229 1090 l 358 1259 l 486 1090 l 548 1090 l 406 1327 l 309 1327 l 168 1090 "},")":{"x_min":31.3125,"x_max":249.078125,"ha":379,"o":"m 31 1005 b 174 373 126 806 174 599 b 31 -266 174 130 129 -79 l 91 -303 b 249 376 197 -103 249 123 b 91 1038 249 623 197 842 l 31 1005 "},"Å":{"x_min":-12,"x_max":825,"ha":829,"o":"m -12 1 l 77 1 l 207 337 l 604 337 l 728 1 l 825 1 l 428 991 l 403 991 l -12 1 m 237 415 l 409 844 l 575 415 l 237 415 m 258 1179 b 415 1019 258 1090 329 1019 b 571 1179 502 1019 571 1090 b 415 1338 571 1269 503 1338 b 258 1179 328 1338 258 1268 m 326 1179 b 415 1269 326 1229 366 1269 b 503 1179 464 1269 503 1230 b 415 1088 503 1129 464 1088 b 326 1179 366 1088 326 1129 "},"ø":{"x_min":59.140625,"x_max":699.984375,"ha":775,"o":"m 527 490 l 195 150 b 148 294 163 197 148 241 b 386 546 148 443 248 546 b 527 490 442 546 486 527 m 230 108 l 565 450 b 610 301 596 400 610 355 b 374 53 610 157 509 53 b 230 108 320 53 276 71 m 98 -27 l 176 50 b 372 -26 238 -2 297 -26 b 699 301 553 -26 699 109 b 622 511 699 379 674 443 l 697 586 l 656 625 l 582 548 b 382 623 518 600 459 623 b 59 293 195 623 59 476 b 135 89 59 216 83 154 l 61 12 l 98 -27 "},"â":{"x_min":55.5,"x_max":626.0625,"ha":751,"o":"m 544 0 l 626 0 l 626 601 l 544 601 l 544 491 b 329 623 503 579 428 623 b 55 297 171 623 55 491 b 337 -26 55 102 168 -26 b 544 109 432 -26 506 20 l 544 0 m 146 294 b 346 547 146 454 227 547 b 545 309 466 547 545 459 b 345 51 545 143 464 51 b 146 294 218 51 146 137 m 178 698 l 239 698 l 368 868 l 496 698 l 558 698 l 416 936 l 319 936 l 178 698 "},"}":{"x_min":117.0625,"x_max":563.5,"ha":694,"o":"m 362 745 b 145 1001 362 934 326 1001 b 117 1001 136 1001 126 1001 l 117 941 b 141 941 125 941 133 941 b 294 762 270 941 294 897 l 294 598 b 424 359 294 461 314 391 b 294 120 314 326 294 258 l 294 -43 b 142 -220 294 -177 270 -220 b 117 -220 134 -220 125 -220 l 117 -280 b 145 -280 126 -280 136 -280 b 362 -26 326 -280 362 -215 l 362 136 b 533 330 362 276 405 330 b 563 329 543 330 552 329 l 563 390 b 533 388 552 390 543 388 b 362 583 405 388 362 443 l 362 745 "},"‰":{"x_min":40.828125,"x_max":1423.71875,"ha":1494,"o":"m 179 -26 l 250 -26 l 809 1002 l 737 1002 l 179 -26 m 431 748 b 235 1002 431 911 355 1002 b 40 748 115 1002 40 911 b 235 494 40 586 114 494 b 431 748 356 494 431 587 m 119 750 b 235 940 119 873 161 940 b 352 750 313 940 352 876 b 235 558 352 626 310 558 b 119 750 160 558 119 625 m 952 226 b 756 480 952 388 876 480 b 562 226 637 480 562 388 b 756 -26 562 63 635 -26 b 952 226 877 -26 952 65 m 641 227 b 756 418 641 351 683 418 b 873 227 834 418 873 354 b 756 36 873 104 831 36 b 641 227 681 36 641 102 m 1423 226 b 1229 480 1423 388 1348 480 b 1033 226 1109 480 1033 388 b 1229 -26 1033 63 1107 -26 b 1423 226 1350 -26 1423 65 m 1112 227 b 1229 418 1112 351 1155 418 b 1344 227 1306 418 1344 354 b 1229 36 1344 104 1303 36 b 1112 227 1154 36 1112 102 "},"Ä":{"x_min":-12,"x_max":825,"ha":829,"o":"m -12 0 l 77 0 l 207 336 l 604 336 l 728 0 l 825 0 l 415 1031 l -12 0 m 237 413 l 409 845 l 575 413 l 237 413 m 226 1197 b 290 1131 226 1159 253 1131 b 355 1197 326 1131 355 1159 b 290 1263 355 1231 325 1263 b 226 1197 256 1263 226 1231 m 458 1197 b 524 1131 458 1159 487 1131 b 588 1197 560 1131 588 1159 b 524 1263 588 1231 559 1263 b 458 1197 490 1263 458 1231 "},"¸":{"x_min":200.078125,"x_max":503.609375,"ha":694,"o":"m 200 -256 b 360 -281 257 -272 310 -281 b 503 -170 455 -281 503 -244 b 362 -68 503 -106 454 -68 b 352 -68 359 -68 355 -68 l 352 0 l 311 0 l 311 -112 b 341 -111 322 -111 332 -111 b 432 -172 402 -111 432 -130 b 349 -231 432 -212 405 -231 b 200 -209 311 -231 261 -222 l 200 -256 "},"a":{"x_min":55.8125,"x_max":626.109375,"ha":751,"o":"m 544 0 l 626 0 l 626 601 l 544 601 l 544 491 b 329 623 503 579 428 623 b 55 297 171 623 55 491 b 337 -26 55 102 168 -26 b 544 109 432 -26 506 20 l 544 0 m 147 294 b 347 547 147 454 227 547 b 545 309 466 547 545 459 b 345 51 545 143 464 51 b 147 294 219 51 147 137 "},"—":{"x_min":0,"x_max":1361.109375,"ha":1389,"o":"m 0 272 l 1361 272 l 1361 326 l 0 326 l 0 272 "},"=":{"x_min":168.78125,"x_max":965.03125,"ha":1157,"o":"m 965 563 l 168 563 l 168 509 l 965 509 l 965 563 m 965 318 l 168 318 l 168 263 l 965 263 l 965 318 "},"N":{"x_min":121.140625,"x_max":892.890625,"ha":1035,"o":"m 121 0 l 204 0 l 204 802 l 892 -29 l 892 993 l 809 993 l 809 204 l 121 1034 l 121 0 "},"˚":{"x_min":175.578125,"x_max":504.96875,"ha":694,"o":"m 175 854 b 340 686 175 759 247 686 b 504 854 432 686 504 759 b 340 1022 504 947 432 1022 b 175 854 247 1022 175 947 m 246 854 b 340 950 246 908 287 950 b 435 854 393 950 435 908 b 340 756 435 800 393 756 b 246 854 287 756 246 800 "},"ú":{"x_min":109.03125,"x_max":608.109375,"ha":732,"o":"m 190 601 l 109 601 l 109 258 b 359 -26 109 69 197 -26 b 608 258 522 -26 608 69 l 608 601 l 526 601 l 526 301 b 357 51 526 133 488 51 b 190 301 227 51 190 133 l 190 601 m 271 698 l 333 698 l 521 936 l 412 936 l 271 698 "},"⁄":{"x_min":-227,"x_max":454,"ha":232,"o":"m -227 -26 l -154 -26 l 454 1002 l 383 1002 l -227 -26 "},"2":{"x_min":47.640625,"x_max":676.46875,"ha":800,"o":"m 672 77 l 227 77 l 441 311 b 676 726 579 463 676 563 b 375 1002 676 891 558 1002 b 68 697 186 1002 68 886 b 68 687 68 694 68 690 l 155 687 b 155 691 155 688 155 690 b 366 922 155 836 239 922 b 581 720 495 922 581 838 b 257 234 581 576 451 451 l 47 0 l 672 0 l 672 77 "},"ü":{"x_min":108.890625,"x_max":608.421875,"ha":732,"o":"m 190 601 l 108 601 l 108 258 b 359 -26 108 69 197 -26 b 608 258 522 -26 608 69 l 608 601 l 526 601 l 526 301 b 357 51 526 133 488 51 b 190 301 227 51 190 133 l 190 601 m 178 805 b 242 740 178 768 205 740 b 307 805 279 740 307 768 b 242 872 307 840 277 872 b 178 805 208 872 178 840 m 411 805 b 476 740 411 768 439 740 b 540 805 513 740 540 768 b 476 872 540 840 511 872 b 411 805 442 872 411 840 "},"¯":{"x_min":168.78125,"x_max":511.78125,"ha":694,"o":"m 168 758 l 511 758 l 511 837 l 168 837 l 168 758 "},"Z":{"x_min":16,"x_max":746,"ha":778,"o":"m 16 0 l 687 0 l 687 83 l 169 83 l 746 993 l 100 993 l 100 911 l 594 911 l 16 0 "},"u":{"x_min":108.890625,"x_max":608.421875,"ha":732,"o":"m 190 601 l 108 601 l 108 258 b 359 -26 108 69 197 -26 b 608 258 522 -26 608 69 l 608 601 l 526 601 l 526 301 b 357 51 526 133 488 51 b 190 301 227 51 190 133 l 190 601 "},"˜":{"x_min":147,"x_max":534,"ha":694,"o":"m 534 877 l 475 877 b 411 831 463 847 442 831 b 370 838 399 831 384 834 l 318 856 b 279 862 306 861 292 862 b 147 741 212 862 166 820 l 205 741 b 266 783 219 769 238 783 b 305 777 279 783 292 781 l 358 759 b 401 752 371 755 385 752 b 534 877 464 752 512 795 "},"Ó":{"x_min":75.171875,"x_max":1115.96875,"ha":1215,"o":"m 1115 494 b 963 865 1115 634 1062 766 b 594 1015 865 963 737 1015 b 227 865 452 1015 325 963 b 75 494 128 766 75 636 b 227 126 75 355 129 225 b 594 -26 325 27 453 -26 b 963 126 735 -26 864 27 b 1115 494 1061 223 1115 354 m 594 54 b 169 494 356 54 169 250 b 594 936 169 741 359 936 b 1022 494 831 936 1022 740 b 594 54 1022 250 832 54 m 508 1090 l 570 1090 l 758 1327 l 649 1327 l 508 1090 "},"k":{"x_min":108.890625,"x_max":620.671875,"ha":636,"o":"m 108 0 l 190 0 l 190 311 l 507 0 l 620 0 l 281 331 l 597 601 l 484 601 l 190 334 l 190 1051 l 108 1051 l 108 0 "},"ˇ":{"x_min":150,"x_max":530,"ha":694,"o":"m 530 936 l 468 936 l 340 766 l 211 936 l 150 936 l 291 698 l 388 698 l 530 936 "},"Ù":{"x_min":117.078125,"x_max":824.421875,"ha":961,"o":"m 117 993 l 117 373 b 470 -26 117 105 232 -26 b 824 373 708 -26 824 105 l 824 993 l 735 993 l 735 344 b 470 54 735 150 650 54 b 204 344 289 54 204 150 l 204 993 l 117 993 m 559 1090 l 417 1327 l 309 1327 l 496 1090 l 559 1090 "},"Ÿ":{"x_min":6.8125,"x_max":737.71875,"ha":758,"o":"m 329 0 l 417 0 l 417 456 l 737 993 l 637 993 l 374 537 l 112 993 l 6 993 l 329 456 l 329 0 m 190 1197 b 254 1131 190 1159 217 1131 b 319 1197 291 1131 319 1159 b 254 1263 319 1231 289 1263 b 190 1197 220 1263 190 1231 m 423 1197 b 488 1131 423 1159 451 1131 b 552 1197 525 1131 552 1159 b 488 1263 552 1231 524 1263 b 423 1197 454 1263 423 1231 "},"¢":{"x_min":81.671875,"x_max":617.953125,"ha":800,"o":"m 617 697 l 617 788 b 430 829 553 815 491 829 l 430 937 l 377 937 l 377 827 b 81 498 193 806 81 675 b 377 179 81 323 202 187 l 377 38 l 430 38 l 430 177 b 617 226 503 179 563 194 l 617 315 b 430 250 573 279 511 259 l 430 755 b 617 697 498 751 559 736 m 377 752 l 377 254 b 168 506 247 270 168 369 b 377 752 168 636 258 743 "},"ß":{"x_min":21.78125,"x_max":638.359375,"ha":718,"o":"m 102 0 l 183 0 l 183 695 b 183 761 183 719 183 740 b 208 922 183 830 186 883 b 332 988 232 965 277 988 b 492 806 438 988 492 925 b 321 623 492 681 436 623 b 288 625 310 623 299 623 l 288 540 b 337 543 311 541 328 543 b 552 294 476 543 552 454 b 360 54 552 140 480 54 b 273 75 329 54 302 59 l 273 -13 b 355 -30 302 -25 329 -30 b 638 293 529 -30 638 97 b 432 586 638 469 566 570 b 577 801 528 623 577 697 b 338 1065 577 965 484 1065 b 102 802 191 1065 102 975 l 102 601 l 21 601 l 21 530 l 102 530 l 102 0 "},"é":{"x_min":58.078125,"x_max":618.421875,"ha":690,"o":"m 614 298 b 614 319 614 305 614 312 b 345 623 614 506 504 623 b 58 294 177 623 58 494 b 347 -26 58 105 175 -26 b 618 151 474 -26 558 29 l 543 193 b 347 48 498 97 436 48 b 146 298 230 48 149 141 l 614 298 m 517 369 l 152 369 b 334 543 161 475 239 543 b 517 369 442 543 510 480 m 250 698 l 312 698 l 500 936 l 391 936 l 250 698 "},"s":{"x_min":41.4375,"x_max":462.015625,"ha":531,"o":"m 41 106 b 248 -26 71 25 146 -26 b 462 155 383 -26 462 48 b 297 343 462 268 403 306 b 157 458 204 375 157 398 b 255 547 157 508 197 547 b 381 459 317 547 362 516 l 456 502 b 260 625 425 581 355 625 b 70 450 146 625 70 551 b 211 284 70 373 116 325 b 377 150 305 244 377 233 b 264 51 377 91 335 51 b 119 152 193 51 146 84 l 41 106 "},"B":{"x_min":121.140625,"x_max":680.5625,"ha":768,"o":"m 121 1 l 291 1 b 579 61 415 1 506 2 b 680 293 646 113 680 190 b 480 527 680 420 604 509 b 632 736 574 551 632 630 b 533 945 632 823 597 897 b 289 994 472 991 396 994 l 121 994 l 121 1 m 209 79 l 209 475 l 322 475 b 356 475 333 475 345 475 b 507 447 415 475 465 473 b 585 275 555 418 585 356 b 517 115 585 209 558 147 b 340 79 472 80 415 79 b 322 79 333 79 328 79 l 209 79 m 209 552 l 209 915 l 319 915 b 541 729 473 915 541 877 b 319 552 541 588 465 552 l 209 552 "},"…":{"x_min":159.25,"x_max":1203.21875,"ha":1389,"o":"m 159 56 b 227 -12 159 18 189 -12 b 295 56 265 -12 295 16 b 227 126 295 97 265 126 b 159 56 189 126 159 95 m 612 56 b 680 -12 612 18 642 -12 b 748 56 718 -12 748 16 b 680 126 748 97 718 126 b 612 56 642 126 612 95 m 1067 56 b 1135 -12 1067 18 1097 -12 b 1203 56 1173 -12 1203 16 b 1135 126 1203 97 1173 126 b 1067 56 1097 126 1067 95 "},"?":{"x_min":114.328125,"x_max":577.109375,"ha":714,"o":"m 193 743 b 193 747 193 744 193 745 b 351 929 193 865 251 929 b 494 784 439 929 494 870 b 333 591 494 693 432 656 b 151 362 227 523 151 475 b 337 180 151 255 227 180 b 544 369 470 180 544 247 b 544 386 544 375 544 380 l 470 386 b 470 373 470 381 470 377 b 347 252 470 297 423 252 b 235 361 279 252 235 297 b 379 525 235 440 291 468 b 577 790 503 604 577 652 b 355 1015 577 927 490 1015 b 114 765 206 1015 114 919 b 114 743 114 758 114 751 l 193 743 m 266 43 b 334 -26 266 4 296 -26 b 402 43 372 -26 402 2 b 334 112 402 83 372 112 b 266 43 296 112 266 81 "},"H":{"x_min":121.140625,"x_max":827.5625,"ha":968,"o":"m 121 0 l 209 0 l 209 512 l 739 512 l 739 0 l 827 0 l 827 993 l 739 993 l 739 590 l 209 590 l 209 993 l 121 993 l 121 0 "},"î":{"x_min":-34,"x_max":346,"ha":319,"o":"m 114 0 l 198 0 l 198 601 l 114 601 l 114 0 m -34 698 l 27 698 l 156 868 l 284 698 l 346 698 l 204 936 l 107 936 l -34 698 "},"c":{"x_min":61.25,"x_max":578.46875,"ha":633,"o":"m 567 491 l 568 583 b 385 623 521 608 455 623 b 61 293 193 623 61 487 b 368 -29 61 106 187 -29 b 578 20 447 -29 518 -12 l 577 112 b 383 44 515 68 449 44 b 144 287 240 44 144 151 b 383 550 144 444 235 550 b 567 491 449 550 511 530 "},"¶":{"x_min":59.890625,"x_max":619.3125,"ha":694,"o":"m 619 959 l 619 1002 l 322 1002 b 59 766 161 1002 59 905 b 313 530 59 631 155 537 l 313 0 l 359 0 l 359 959 l 487 959 l 487 0 l 533 0 l 533 959 l 619 959 "},"−":{"x_min":168.78125,"x_max":965.03125,"ha":1157,"o":"m 965 441 l 168 441 l 168 387 l 965 387 l 965 441 "},"•":{"x_min":204.171875,"x_max":597.53125,"ha":819,"o":"m 204 516 b 400 315 204 405 291 315 b 597 516 509 315 597 406 b 401 716 597 627 509 716 b 204 516 292 716 204 627 "},"¥":{"x_min":21.78125,"x_max":762.21875,"ha":801,"o":"m 352 0 l 436 0 l 436 427 l 762 427 l 762 494 l 462 494 l 528 604 l 762 604 l 762 672 l 570 672 l 756 984 l 666 984 l 393 526 l 126 984 l 28 984 l 216 672 l 21 672 l 21 604 l 259 604 l 325 494 l 21 494 l 21 427 l 352 427 l 352 0 "},"(":{"x_min":122.5,"x_max":340.28125,"ha":379,"o":"m 340 1005 l 280 1039 b 122 376 174 843 122 623 b 280 -303 122 123 174 -102 l 340 -266 b 198 373 242 -79 198 130 b 340 1005 198 600 245 807 "},"U":{"x_min":117.0625,"x_max":824.828125,"ha":961,"o":"m 117 993 l 117 373 b 470 -26 117 105 232 -26 b 824 373 709 -26 824 105 l 824 993 l 736 993 l 736 344 b 470 54 736 150 650 54 b 204 344 289 54 204 150 l 204 993 l 117 993 "},"Ñ":{"x_min":120.71875,"x_max":892.921875,"ha":1035,"o":"m 120 0 l 203 0 l 203 802 l 892 -29 l 892 993 l 809 993 l 809 204 l 120 1034 l 120 0 m 701 1269 l 642 1269 b 578 1223 630 1238 609 1223 b 537 1230 566 1223 551 1226 l 485 1248 b 446 1254 473 1252 459 1254 b 314 1133 379 1254 333 1212 l 372 1133 b 433 1175 386 1161 405 1175 b 472 1169 446 1175 459 1173 l 525 1151 b 568 1144 538 1147 552 1144 b 701 1269 631 1144 679 1187 "},"F":{"x_min":121.140625,"x_max":602.96875,"ha":696,"o":"m 121 0 l 209 0 l 209 512 l 588 512 l 588 597 l 209 597 l 209 908 l 602 908 l 602 993 l 121 993 l 121 0 "},":":{"x_min":142.921875,"x_max":279.03125,"ha":431,"o":"m 142 515 b 210 445 142 476 172 445 b 279 515 249 445 279 475 b 210 584 279 555 249 584 b 142 515 172 584 142 554 m 142 56 b 210 -12 142 18 172 -12 b 279 56 249 -12 279 16 b 210 126 279 97 249 126 b 142 56 172 126 142 95 "},"Û":{"x_min":116.671875,"x_max":824.6875,"ha":961,"o":"m 116 993 l 116 373 b 470 -26 116 105 232 -26 b 824 373 708 -26 824 105 l 824 993 l 736 993 l 736 344 b 470 54 736 150 650 54 b 203 344 289 54 203 150 l 203 993 l 116 993 m 280 1090 l 341 1090 l 470 1259 l 598 1090 l 660 1090 l 518 1327 l 421 1327 l 280 1090 "},"*":{"x_min":79,"x_max":489,"ha":579,"o":"m 107 629 l 260 722 l 254 543 l 311 543 l 306 723 l 457 629 l 489 681 l 333 765 l 489 852 l 460 904 l 307 806 l 313 993 l 254 993 l 258 806 l 107 905 l 79 852 l 234 765 l 79 681 l 107 629 "},"†":{"x_min":66.6875,"x_max":627.46875,"ha":707,"o":"m 306 -302 l 387 -302 l 387 525 l 627 525 l 627 602 l 387 602 l 387 993 l 306 993 l 306 602 l 66 602 l 66 525 l 306 525 l 306 -302 "},"°":{"x_min":42.1875,"x_max":405.609375,"ha":457,"o":"m 224 983 b 42 797 123 983 42 901 b 223 612 42 694 121 612 b 405 797 325 612 405 695 b 224 983 405 900 323 983 m 366 797 b 224 652 366 718 303 652 b 83 797 147 652 83 716 b 224 941 83 877 145 941 b 366 797 302 941 366 876 "},"V":{"x_min":-12.46875,"x_max":762,"ha":765,"o":"m 368 -26 l 762 993 l 665 993 l 370 185 l 89 993 l -12 993 l 368 -26 "},"å":{"x_min":55.8125,"x_max":626.109375,"ha":751,"o":"m 193 827 b 349 668 193 738 264 668 b 506 827 436 668 506 738 b 349 987 506 918 438 987 b 193 827 262 987 193 916 m 261 827 b 349 919 261 877 300 919 b 438 827 398 919 438 879 b 349 737 438 777 398 737 b 261 827 300 737 261 777 m 544 0 l 626 0 l 626 601 l 544 601 l 544 491 b 329 623 503 579 428 623 b 55 297 171 623 55 491 b 337 -26 55 102 168 -26 b 544 109 432 -26 506 20 l 544 0 m 147 294 b 347 547 147 454 227 547 b 545 309 466 547 545 459 b 345 51 545 143 464 51 b 147 294 219 51 147 137 "},"0":{"x_min":68.0625,"x_max":717.3125,"ha":800,"o":"m 390 -26 b 717 487 592 -26 717 156 b 393 1002 717 818 590 1002 b 68 487 194 1002 68 815 b 390 -26 68 159 197 -26 m 155 486 b 390 922 155 758 245 922 b 628 488 544 922 628 770 b 393 54 628 202 547 54 b 155 486 245 54 155 216 "},"”":{"x_min":71,"x_max":513,"ha":594,"o":"m 71 650 l 124 628 l 298 971 l 198 1015 l 71 650 m 284 650 l 338 628 l 513 971 l 413 1015 l 284 650 "},"¾":{"x_min":41,"x_max":1142.640625,"ha":1240,"o":"m 101 569 l 41 569 b 235 413 49 469 118 413 b 430 575 358 413 430 480 b 313 718 430 644 388 695 b 419 847 380 736 419 783 b 242 991 419 934 347 991 b 67 857 144 991 75 940 l 126 857 b 242 947 133 914 177 947 b 362 842 314 947 362 906 b 241 743 362 782 318 743 b 209 743 234 743 224 743 l 209 695 b 238 695 222 695 230 695 b 371 575 321 695 371 648 b 235 459 371 506 324 459 b 101 569 152 459 106 496 m 267 -26 l 339 -26 l 948 1004 l 877 1004 l 267 -26 m 1024 0 l 1080 0 l 1080 139 l 1142 139 l 1142 184 l 1080 184 l 1080 569 l 747 139 l 1024 139 l 1024 0 m 1024 184 l 830 184 l 1024 434 l 1024 184 "},"@":{"x_min":80.3125,"x_max":1280.8125,"ha":1389,"o":"m 809 316 b 602 136 782 206 700 136 b 458 302 513 136 458 197 b 696 626 458 484 562 626 b 852 488 779 626 833 577 l 809 316 m 865 561 b 695 676 838 637 779 676 b 389 306 528 676 389 516 b 597 86 389 162 461 86 b 790 211 676 86 747 130 b 788 184 789 201 788 193 b 916 86 788 119 831 86 b 1118 161 986 86 1058 112 b 1280 527 1222 244 1280 373 b 1107 869 1280 662 1220 780 b 740 983 1019 938 887 983 b 212 741 519 983 338 900 b 80 354 126 634 80 501 b 280 -63 80 176 145 40 b 692 -188 386 -145 524 -188 b 1122 -40 849 -188 993 -138 l 1103 -9 b 690 -140 981 -94 830 -140 b 149 345 359 -140 149 52 b 355 801 149 531 219 686 b 733 931 457 887 583 931 b 1215 520 1024 931 1215 765 b 1067 188 1215 381 1154 254 b 932 137 1022 155 974 137 b 854 200 882 137 854 161 b 868 273 854 212 858 237 l 959 648 l 906 648 l 865 561 "},"ö":{"x_min":59.890625,"x_max":699.609375,"ha":775,"o":"m 377 -26 b 699 300 553 -26 699 118 b 377 623 699 480 556 623 b 59 300 201 623 59 480 b 377 -26 59 116 204 -26 m 379 51 b 148 298 251 51 148 159 b 379 545 148 438 250 545 b 611 298 507 545 611 438 b 379 51 611 158 506 51 m 198 805 b 262 740 198 768 225 740 b 328 805 299 740 328 768 b 262 872 328 840 298 872 b 198 805 228 872 198 840 m 431 805 b 496 740 431 768 460 740 b 560 805 533 740 560 768 b 496 872 560 840 532 872 b 431 805 462 872 431 840 "},"i":{"x_min":93.921875,"x_max":220.5,"ha":319,"o":"m 114 0 l 198 0 l 198 601 l 114 601 l 114 0 m 93 836 b 156 772 93 801 119 772 b 220 836 193 772 220 801 b 156 900 220 873 190 900 b 93 836 123 900 93 873 "},"Õ":{"x_min":74.96875,"x_max":1116.671875,"ha":1215,"o":"m 1116 494 b 964 865 1116 634 1063 766 b 595 1015 866 963 738 1015 b 227 865 452 1015 325 963 b 74 494 128 766 74 636 b 227 126 74 355 129 225 b 595 -26 325 27 453 -26 b 964 126 735 -26 864 27 b 1116 494 1062 223 1116 354 m 595 54 b 168 494 356 54 168 250 b 595 936 168 741 359 936 b 1022 494 832 936 1022 740 b 595 54 1022 250 833 54 m 790 1269 l 731 1269 b 667 1223 719 1238 698 1223 b 626 1230 655 1223 640 1226 l 574 1248 b 535 1254 562 1252 548 1254 b 403 1133 468 1254 422 1212 l 461 1133 b 522 1175 475 1161 494 1175 b 561 1169 535 1175 548 1173 l 614 1151 b 657 1144 627 1147 641 1144 b 790 1269 720 1144 768 1187 "},"þ":{"x_min":108.890625,"x_max":675.109375,"ha":751,"o":"m 187 111 b 402 -26 232 20 307 -26 b 675 298 562 -26 675 93 b 398 623 675 494 564 623 b 187 488 304 623 223 572 l 187 1051 l 108 1051 l 108 -302 l 187 -302 l 187 111 m 586 297 b 398 51 586 140 514 51 b 189 304 280 51 189 141 b 390 547 189 461 269 547 b 586 297 513 547 586 452 "},"]":{"x_min":31.3125,"x_max":224.578125,"ha":379,"o":"m 224 1015 l 31 1015 l 31 948 l 148 948 l 148 -212 l 31 -212 l 31 -279 l 224 -279 l 224 1015 "},"m":{"x_min":108.890625,"x_max":965.03125,"ha":1096,"o":"m 190 0 l 190 316 b 357 551 190 472 239 551 b 496 373 457 551 496 491 l 496 0 l 578 0 l 578 316 b 741 551 578 472 624 551 b 883 373 835 551 883 491 l 883 0 l 965 0 l 965 406 b 763 623 965 540 888 623 b 558 505 673 623 605 584 b 378 623 525 583 464 623 b 190 506 295 623 228 583 l 190 601 l 108 601 l 108 0 l 190 0 "},"8":{"x_min":83.03125,"x_max":700.96875,"ha":800,"o":"m 273 534 b 83 266 153 504 83 400 b 393 -26 83 91 197 -26 b 700 269 588 -26 700 88 b 511 534 700 400 628 504 b 665 748 611 570 665 645 b 393 1002 665 898 562 1002 b 119 759 227 1002 119 897 b 273 534 119 648 176 565 m 394 570 b 212 745 277 570 212 641 b 393 923 212 854 283 923 b 575 745 502 923 575 855 b 394 570 575 641 510 570 m 392 54 b 175 270 253 54 175 138 b 392 490 175 406 257 490 b 609 270 526 490 609 405 b 392 54 609 141 532 54 "},"ž":{"x_min":15,"x_max":495.015625,"ha":529,"o":"m 15 0 l 495 0 l 495 73 l 159 73 l 485 601 l 37 601 l 37 526 l 344 526 l 15 0 m 449 936 l 387 936 l 259 766 l 130 936 l 69 936 l 210 698 l 307 698 l 449 936 "},"R":{"x_min":121.140625,"x_max":711.859375,"ha":733,"o":"m 711 0 l 362 473 b 615 722 518 473 615 566 b 299 993 615 904 510 993 l 121 993 l 121 0 l 209 0 l 209 473 l 262 473 l 604 0 l 711 0 m 209 913 l 298 913 b 519 725 453 913 519 868 b 298 547 519 583 449 547 l 209 547 l 209 913 "},"á":{"x_min":55.421875,"x_max":625.28125,"ha":751,"o":"m 543 0 l 625 0 l 625 601 l 543 601 l 543 491 b 328 623 502 579 428 623 b 55 297 171 623 55 491 b 337 -26 55 102 168 -26 b 543 109 432 -26 505 20 l 543 0 m 146 294 b 346 547 146 454 226 547 b 544 309 466 547 544 459 b 345 51 544 143 463 51 b 146 294 218 51 146 137 m 280 698 l 342 698 l 530 936 l 421 936 l 280 698 "},"×":{"x_min":206,"x_max":930,"ha":1157,"o":"m 568 452 l 244 783 l 206 744 l 529 413 l 206 82 l 244 44 l 568 374 l 891 44 l 930 82 l 606 413 l 930 744 l 891 783 l 568 452 "},"o":{"x_min":59.890625,"x_max":699.609375,"ha":775,"o":"m 377 -26 b 699 300 553 -26 699 118 b 377 623 699 480 556 623 b 59 300 201 623 59 480 b 377 -26 59 116 204 -26 m 379 51 b 148 298 251 51 148 159 b 379 545 148 438 250 545 b 611 298 507 545 611 438 b 379 51 611 158 506 51 "},"5":{"x_min":54.4375,"x_max":684.640625,"ha":800,"o":"m 232 598 l 308 906 l 641 906 l 641 983 l 247 983 l 123 484 l 151 481 b 352 554 202 530 272 554 b 593 313 500 554 593 459 b 359 54 593 154 499 54 b 123 215 251 54 181 105 l 54 162 b 355 -27 119 34 216 -27 b 684 319 551 -27 684 112 b 377 631 684 505 560 631 b 232 598 328 631 281 619 "},"õ":{"x_min":59.421875,"x_max":699.578125,"ha":775,"o":"m 376 -26 b 699 300 553 -26 699 118 b 376 623 699 480 556 623 b 59 300 201 623 59 480 b 376 -26 59 116 203 -26 m 379 51 b 147 298 251 51 147 159 b 379 545 147 438 250 545 b 611 298 507 545 611 438 b 379 51 611 158 506 51 m 573 877 l 514 877 b 450 831 502 847 481 831 b 409 838 438 831 423 834 l 357 856 b 318 862 345 861 331 862 b 186 741 251 862 205 820 l 244 741 b 305 783 258 769 277 783 b 344 777 318 783 331 781 l 397 759 b 440 752 410 755 424 752 b 573 877 503 752 551 795 "},"7":{"x_min":123.015625,"x_max":721,"ha":800,"o":"m 148 12 l 230 -31 l 721 982 l 123 982 l 123 906 l 592 906 l 148 12 "},"K":{"x_min":121.140625,"x_max":786.71875,"ha":797,"o":"m 121 0 l 209 0 l 209 504 l 658 0 l 786 0 l 303 518 l 764 993 l 649 993 l 209 527 l 209 993 l 121 993 l 121 0 "},",":{"x_min":80,"x_max":311.390625,"ha":400,"o":"m 214 172 l 80 -191 l 135 -218 l 311 130 l 214 172 "},"d":{"x_min":58.53125,"x_max":628.828125,"ha":751,"o":"m 545 0 l 628 0 l 628 1051 l 545 1051 l 545 491 b 332 623 504 579 431 623 b 58 297 174 623 58 491 b 340 -26 58 102 171 -26 b 545 109 435 -26 507 20 l 545 0 m 149 294 b 349 547 149 454 230 547 b 547 309 469 547 547 459 b 348 51 547 143 466 51 b 149 294 221 51 149 137 "},"¨":{"x_min":159.25,"x_max":521.3125,"ha":694,"o":"m 159 805 b 223 740 159 768 186 740 b 288 805 259 740 288 768 b 223 872 288 840 258 872 b 159 805 189 872 159 840 m 392 805 b 457 740 392 768 420 740 b 521 805 494 740 521 768 b 457 872 521 840 492 872 b 392 805 423 872 392 840 "},"Ô":{"x_min":75.25,"x_max":1116.75,"ha":1215,"o":"m 1116 494 b 964 865 1116 634 1063 766 b 595 1015 866 963 738 1015 b 227 865 452 1015 325 963 b 75 494 128 766 75 636 b 227 126 75 355 129 225 b 595 -26 325 27 453 -26 b 964 126 735 -26 864 27 b 1116 494 1062 223 1116 354 m 595 54 b 169 494 357 54 169 250 b 595 936 169 741 359 936 b 1022 494 832 936 1022 740 b 595 54 1022 250 833 54 m 406 1090 l 467 1090 l 596 1259 l 724 1090 l 786 1090 l 644 1327 l 547 1327 l 406 1090 "},"E":{"x_min":121.140625,"x_max":602.96875,"ha":713,"o":"m 121 0 l 602 0 l 602 84 l 209 84 l 209 512 l 602 512 l 602 597 l 209 597 l 209 908 l 602 908 l 602 993 l 121 993 l 121 0 "},"Y":{"x_min":6.8125,"x_max":737.71875,"ha":758,"o":"m 329 0 l 417 0 l 417 456 l 737 993 l 637 993 l 374 537 l 112 993 l 6 993 l 329 456 l 329 0 "},"\"":{"x_min":66.6875,"x_max":299.4375,"ha":374,"o":"m 123 972 l 66 972 l 66 597 l 123 597 l 123 972 m 299 972 l 242 972 l 242 597 l 299 597 l 299 972 "},"‹":{"x_min":28.90625,"x_max":252,"ha":286,"o":"m 196 35 l 252 69 l 109 294 l 247 529 l 190 564 l 28 296 l 196 35 "},"˙":{"x_min":272.21875,"x_max":408.328125,"ha":694,"o":"m 272 805 b 340 736 272 768 303 736 b 408 805 377 736 408 768 b 340 876 408 844 375 876 b 272 805 303 876 272 843 "},"ê":{"x_min":58.171875,"x_max":619.1875,"ha":690,"o":"m 615 298 b 615 319 615 305 615 312 b 345 623 615 506 504 623 b 58 294 178 623 58 494 b 348 -26 58 105 175 -26 b 619 151 474 -26 559 29 l 544 193 b 348 48 499 97 436 48 b 146 298 231 48 149 141 l 615 298 m 518 369 l 152 369 b 334 543 161 475 239 543 b 518 369 443 543 511 480 m 148 698 l 209 698 l 338 868 l 466 698 l 528 698 l 386 936 l 289 936 l 148 698 "},"Ï":{"x_min":-14.96875,"x_max":347.078125,"ha":338,"o":"m 121 0 l 209 0 l 209 993 l 121 993 l 121 0 m -14 1197 b 49 1131 -14 1159 12 1131 b 114 1197 85 1131 114 1159 b 49 1263 114 1231 84 1263 b -14 1197 14 1263 -14 1231 m 217 1197 b 283 1131 217 1159 246 1131 b 347 1197 319 1131 347 1159 b 283 1263 347 1231 318 1263 b 217 1197 249 1263 217 1231 "},"„":{"x_min":71,"x_max":513,"ha":594,"o":"m 71 -194 l 124 -217 l 298 126 l 198 171 l 71 -194 m 284 -194 l 338 -217 l 513 126 l 413 171 l 284 -194 "},"Â":{"x_min":-12,"x_max":825,"ha":829,"o":"m -12 0 l 77 0 l 207 336 l 605 336 l 728 0 l 825 0 l 415 1031 l -12 0 m 237 413 l 410 845 l 576 413 l 237 413 m 217 1090 l 277 1090 l 407 1259 l 535 1090 l 597 1090 l 455 1327 l 358 1327 l 217 1090 "},"Í":{"x_min":78,"x_max":328,"ha":338,"o":"m 121 0 l 209 0 l 209 993 l 121 993 l 121 0 m 78 1090 l 140 1090 l 328 1327 l 219 1327 l 78 1090 "},"´":{"x_min":252,"x_max":502,"ha":694,"o":"m 252 698 l 314 698 l 502 936 l 393 936 l 252 698 "},"ì":{"x_min":-5,"x_max":245,"ha":319,"o":"m 114 0 l 198 0 l 198 601 l 114 601 l 114 0 m 245 698 l 103 936 l -5 936 l 182 698 l 245 698 "},"±":{"x_min":168.78125,"x_max":965.03125,"ha":1157,"o":"m 593 787 l 540 787 l 540 547 l 168 547 l 168 493 l 540 493 l 540 254 l 593 254 l 593 493 l 965 493 l 965 547 l 593 547 l 593 787 m 965 95 l 168 95 l 168 41 l 965 41 l 965 95 "},"Ú":{"x_min":116.578125,"x_max":823.921875,"ha":961,"o":"m 116 993 l 116 373 b 470 -26 116 105 232 -26 b 823 373 708 -26 823 105 l 823 993 l 735 993 l 735 344 b 470 54 735 150 649 54 b 203 344 289 54 203 150 l 203 993 l 116 993 m 382 1090 l 444 1090 l 632 1327 l 523 1327 l 382 1090 "},"|":{"x_min":310.328125,"x_max":370.21875,"ha":694,"o":"m 370 1061 l 310 1061 l 310 -327 l 370 -327 l 370 1061 "},"§":{"x_min":76.21875,"x_max":620.671875,"ha":707,"o":"m 117 -62 b 117 -80 117 -68 117 -73 b 353 -308 117 -218 209 -308 b 589 -86 494 -308 589 -209 b 445 120 589 8 541 77 b 620 362 560 158 620 241 b 396 622 620 494 544 566 b 204 802 281 663 204 693 b 351 943 204 884 265 943 b 498 776 445 943 494 887 l 588 776 b 588 793 588 781 588 787 b 356 1016 588 934 506 1016 b 110 797 201 1016 110 926 b 255 595 110 701 156 637 b 76 359 144 559 76 469 b 328 86 76 193 168 144 b 499 -76 431 47 499 20 b 352 -220 499 -165 446 -220 b 201 -62 254 -220 204 -169 l 117 -62 m 349 172 b 166 359 238 172 166 245 b 349 545 166 463 247 545 b 532 359 458 545 532 469 b 349 172 532 255 450 172 "},"Ý":{"x_min":6.6875,"x_max":737.171875,"ha":758,"o":"m 329 0 l 417 0 l 417 456 l 737 993 l 636 993 l 374 537 l 112 993 l 6 993 l 329 456 l 329 0 m 283 1090 l 345 1090 l 533 1327 l 424 1327 l 283 1090 "},"b":{"x_min":108.890625,"x_max":677.828125,"ha":751,"o":"m 190 0 l 190 109 b 396 -26 228 20 300 -26 b 677 297 564 -26 677 102 b 404 623 677 491 562 623 b 190 491 304 623 231 579 l 190 1051 l 108 1051 l 108 0 l 190 0 m 586 294 b 389 51 586 137 515 51 b 189 309 270 51 189 143 b 386 547 189 459 266 547 b 586 294 506 547 586 454 "},"q":{"x_min":59.890625,"x_max":627.46875,"ha":751,"o":"m 627 -302 l 627 601 l 548 601 l 548 488 b 336 623 504 573 427 623 b 59 298 170 623 59 494 b 332 -26 59 93 172 -26 b 548 111 427 -26 502 20 l 548 -302 l 627 -302 m 345 547 b 545 304 466 547 545 461 b 337 51 545 141 455 51 b 148 297 221 51 148 138 b 345 547 148 452 223 547 "},"Ö":{"x_min":74.859375,"x_max":1116.109375,"ha":1215,"o":"m 1116 494 b 963 865 1116 634 1063 766 b 594 1015 865 963 737 1015 b 227 865 451 1015 325 963 b 74 494 127 766 74 636 b 227 126 74 355 129 225 b 594 -26 325 27 453 -26 b 963 126 735 -26 864 27 b 1116 494 1061 223 1116 354 m 594 54 b 168 494 356 54 168 250 b 594 936 168 741 359 936 b 1022 494 831 936 1022 740 b 594 54 1022 250 833 54 m 415 1197 b 479 1131 415 1159 442 1131 b 544 1197 515 1131 544 1159 b 479 1263 544 1231 514 1263 b 415 1197 445 1263 415 1231 m 647 1197 b 713 1131 647 1159 676 1131 b 777 1197 749 1131 777 1159 b 713 1263 777 1231 748 1263 b 647 1197 679 1263 647 1231 "},"ﬂ":{"x_min":17.6875,"x_max":533.5625,"ha":663,"o":"m 127 0 l 209 0 l 209 530 l 338 530 l 338 601 l 209 601 l 209 829 b 288 993 209 940 223 993 b 347 976 304 993 325 987 l 362 1050 b 283 1063 334 1059 310 1063 b 127 775 138 1063 127 966 l 127 601 l 17 601 l 17 530 l 127 530 l 127 0 m 450 0 l 533 0 l 533 1051 l 450 1051 l 450 0 "},"z":{"x_min":15,"x_max":495.015625,"ha":529,"o":"m 15 0 l 495 0 l 495 73 l 159 73 l 485 601 l 38 601 l 38 526 l 344 526 l 15 0 "},"™":{"x_min":182.390625,"x_max":906.5,"ha":1157,"o":"m 461 985 l 182 985 l 182 951 l 300 951 l 300 626 l 345 626 l 345 951 l 461 951 l 461 985 m 615 985 l 548 985 l 548 626 l 588 626 l 588 951 l 714 626 l 747 626 l 867 951 l 867 626 l 906 626 l 906 985 l 838 985 l 730 687 l 615 985 "},"ã":{"x_min":56.21875,"x_max":626.734375,"ha":751,"o":"m 545 0 l 626 0 l 626 601 l 545 601 l 545 491 b 329 623 504 579 429 623 b 56 297 171 623 56 491 b 338 -26 56 102 169 -26 b 545 109 433 -26 506 20 l 545 0 m 147 294 b 347 547 147 454 227 547 b 546 309 467 547 546 459 b 346 51 546 143 464 51 b 147 294 219 51 147 137 m 562 877 l 504 877 b 440 831 491 847 471 831 b 399 838 427 831 412 834 l 347 856 b 308 862 335 861 321 862 b 176 741 241 862 195 820 l 234 741 b 295 783 248 769 267 783 b 333 777 308 783 321 781 l 387 759 b 430 752 400 755 414 752 b 562 877 493 752 540 795 "},"æ":{"x_min":47.640625,"x_max":1023.5625,"ha":1101,"o":"m 466 183 b 292 48 466 109 400 48 b 137 169 193 48 137 92 b 302 297 137 247 196 297 b 466 183 404 297 466 249 m 556 367 b 739 542 566 473 643 542 b 922 367 846 542 916 478 l 556 367 m 1019 297 b 1019 313 1019 302 1019 308 b 744 622 1019 503 909 622 b 525 497 647 622 566 576 b 298 624 504 574 419 624 b 92 587 228 624 161 612 l 91 498 b 291 551 157 533 220 551 b 475 355 415 551 475 487 b 472 308 475 344 473 328 b 288 370 424 349 362 370 b 47 166 138 370 47 281 b 270 -27 47 53 132 -27 b 507 122 389 -27 476 27 b 748 -27 563 19 638 -27 b 1023 151 875 -27 960 28 l 945 192 b 747 49 903 97 838 49 b 551 297 634 49 556 140 l 1019 297 "},"®":{"x_min":82.046875,"x_max":1052.515625,"ha":1157,"o":"m 566 984 b 226 841 434 984 316 934 b 82 488 132 744 82 619 b 224 140 82 356 132 234 b 566 -6 317 45 437 -6 b 912 141 694 -6 817 45 b 1052 488 1003 233 1052 352 b 912 838 1052 622 1003 745 b 566 984 819 933 698 984 m 1004 488 b 878 176 1004 366 959 258 b 566 43 792 90 680 43 b 259 175 450 43 342 90 b 129 488 175 259 129 370 b 260 806 129 606 175 719 b 566 936 340 890 448 936 b 878 804 685 936 793 890 b 1004 488 959 720 1004 609 m 581 783 l 378 783 l 378 209 l 454 209 l 454 465 l 596 465 l 717 209 l 804 209 l 678 476 b 812 625 761 486 812 545 b 581 783 812 736 736 783 m 566 730 b 735 627 679 730 735 700 b 566 518 735 540 685 518 l 454 518 l 454 730 l 566 730 "},"É":{"x_min":121.28125,"x_max":602.671875,"ha":713,"o":"m 121 0 l 602 0 l 602 84 l 209 84 l 209 512 l 602 512 l 602 597 l 209 597 l 209 908 l 602 908 l 602 993 l 121 993 l 121 0 m 271 1090 l 333 1090 l 521 1327 l 412 1327 l 271 1090 "},"~":{"x_min":118.421875,"x_max":1016.75,"ha":1157,"o":"m 1016 438 l 1016 501 b 759 393 920 431 839 393 b 567 441 691 393 631 418 b 375 488 506 463 446 488 b 118 388 294 488 209 454 l 118 326 b 375 434 215 395 295 434 b 567 386 442 434 502 409 b 759 338 627 363 687 338 b 1016 438 841 338 925 373 "},"³":{"x_min":44.140625,"x_max":451.109375,"ha":528,"o":"m 106 540 l 44 540 b 246 375 52 433 124 375 b 451 548 374 375 451 445 b 328 700 451 620 406 676 b 440 837 398 718 440 770 b 253 991 440 930 364 991 b 70 848 151 991 79 937 l 132 848 b 253 944 140 909 185 944 b 380 833 329 944 380 900 b 252 726 380 768 334 726 b 221 726 245 726 236 726 l 221 675 b 249 676 231 676 242 676 b 389 548 338 676 389 626 b 246 422 389 473 339 422 b 106 540 159 422 112 462 "},"¡":{"x_min":142.921875,"x_max":279.03125,"ha":431,"o":"m 142 945 b 210 876 142 906 172 876 b 279 945 249 876 279 905 b 210 1015 279 986 249 1015 b 142 945 172 1015 142 984 m 170 784 l 170 -26 l 251 -26 l 251 784 l 170 784 "},"[":{"x_min":147,"x_max":340.28125,"ha":379,"o":"m 147 1015 l 147 -279 l 340 -279 l 340 -212 l 224 -212 l 224 948 l 340 948 l 340 1015 l 147 1015 "},"L":{"x_min":121.140625,"x_max":543.078125,"ha":574,"o":"m 121 0 l 543 0 l 543 84 l 209 84 l 209 993 l 121 993 l 121 0 "}," ":{"x_min":0,"x_max":0,"ha":400},"%":{"x_min":42.1875,"x_max":954.140625,"ha":1015,"o":"m 179 -26 l 251 -26 l 811 1002 l 739 1002 l 179 -26 m 432 748 b 236 1002 432 911 356 1002 b 42 748 117 1002 42 911 b 236 494 42 586 115 494 b 432 748 357 494 432 587 m 121 750 b 236 940 121 873 163 940 b 353 750 314 940 353 876 b 236 558 353 626 311 558 b 121 750 161 558 121 625 m 954 226 b 758 480 954 388 877 480 b 563 226 638 480 563 388 b 758 -26 563 63 637 -26 b 954 226 879 -26 954 65 m 642 227 b 758 418 642 351 684 418 b 875 227 835 418 875 354 b 758 36 875 104 833 36 b 642 227 683 36 642 102 "},"P":{"x_min":121.140625,"x_max":635.640625,"ha":694,"o":"m 209 526 l 209 915 l 269 915 b 476 876 366 915 431 913 b 541 713 517 843 541 784 b 269 526 541 545 442 526 l 209 526 m 121 1 l 209 1 l 209 447 l 311 447 b 635 720 526 447 635 525 b 539 944 635 818 598 900 b 310 994 475 991 402 994 b 266 994 296 994 281 994 l 121 994 l 121 1 "},"À":{"x_min":-12,"x_max":825,"ha":829,"o":"m -12 0 l 77 0 l 207 336 l 604 336 l 728 0 l 825 0 l 415 1031 l -12 0 m 237 413 l 410 845 l 576 413 l 237 413 m 496 1090 l 354 1327 l 246 1327 l 433 1090 l 496 1090 "},"_":{"x_min":0,"x_max":680.5625,"ha":694,"o":"m 680 -273 l 0 -273 l 0 -327 l 680 -327 l 680 -273 "},"ñ":{"x_min":108.921875,"x_max":607.53125,"ha":724,"o":"m 108 0 l 190 0 l 190 313 b 373 548 190 469 243 548 b 524 370 478 548 524 490 l 524 0 l 607 0 l 607 408 b 395 623 607 547 525 623 b 186 508 305 623 235 586 l 186 601 l 108 601 l 108 0 m 549 877 l 490 877 b 426 831 478 847 457 831 b 385 838 414 831 399 834 l 333 856 b 294 862 321 861 307 862 b 162 741 227 862 181 820 l 220 741 b 281 783 234 769 253 783 b 320 777 294 783 307 781 l 373 759 b 416 752 386 755 400 752 b 549 877 479 752 527 795 "},"+":{"x_min":168.78125,"x_max":965.03125,"ha":1157,"o":"m 593 826 l 540 826 l 540 440 l 168 440 l 168 386 l 540 386 l 540 0 l 593 0 l 593 386 l 965 386 l 965 440 l 593 440 l 593 826 "},"‚":{"x_min":80,"x_max":311.390625,"ha":400,"o":"m 214 172 l 80 -191 l 135 -218 l 311 130 l 214 172 "},"½":{"x_min":118.28125,"x_max":1149.078125,"ha":1240,"o":"m 229 429 l 282 429 l 282 979 l 145 979 l 118 934 l 229 934 l 229 429 m 268 -26 l 340 -26 l 949 1002 l 878 1002 l 268 -26 m 1146 43 l 865 43 l 1000 173 b 1149 406 1087 259 1149 315 b 959 561 1149 500 1074 561 b 765 390 840 561 765 495 b 765 384 765 388 765 386 l 820 384 b 820 387 820 386 820 386 b 953 516 820 468 874 516 b 1089 404 1034 516 1089 469 b 884 131 1089 322 1007 252 l 752 0 l 1146 0 l 1146 43 "},"Æ":{"x_min":5.078125,"x_max":1116,"ha":1144,"o":"m 89 0 l 206 336 l 560 336 l 673 0 l 1116 0 l 1088 84 l 734 84 l 591 512 l 941 512 l 913 597 l 563 597 l 458 908 l 794 908 l 767 993 l 356 993 l 5 0 l 89 0 m 231 413 l 390 862 l 534 413 l 231 413 "},"Ë":{"x_min":121.140625,"x_max":602.96875,"ha":713,"o":"m 121 0 l 602 0 l 602 84 l 209 84 l 209 512 l 602 512 l 602 597 l 209 597 l 209 908 l 602 908 l 602 993 l 121 993 l 121 0 m 178 1197 b 242 1131 178 1159 205 1131 b 307 1197 279 1131 307 1159 b 242 1263 307 1231 277 1263 b 178 1197 208 1263 178 1231 m 411 1197 b 476 1131 411 1159 439 1131 b 540 1197 513 1131 540 1159 b 476 1263 540 1231 511 1263 b 411 1197 442 1263 411 1231 "},"'":{"x_min":66.6875,"x_max":123.859375,"ha":193,"o":"m 123 972 l 66 972 l 66 597 l 123 597 l 123 972 "},"Š":{"x_min":44.921875,"x_max":601.21875,"ha":692,"o":"m 44 166 b 315 -26 96 38 187 -26 b 601 263 492 -26 601 86 b 392 556 601 413 535 477 b 176 776 265 627 176 655 b 333 936 176 873 236 936 b 486 848 404 936 458 905 l 554 890 b 339 1016 509 973 437 1016 b 87 777 189 1016 87 918 b 330 493 87 638 177 575 b 516 263 445 431 516 386 b 319 54 516 130 442 54 b 121 208 224 54 148 109 l 44 166 m 527 1327 l 465 1327 l 337 1158 l 208 1327 l 147 1327 l 288 1090 l 385 1090 l 527 1327 "},"ª":{"x_min":42.1875,"x_max":469.578125,"ha":564,"o":"m 408 572 l 469 572 l 469 993 l 408 993 l 408 916 b 247 1008 378 977 321 1008 b 42 780 129 1008 42 916 b 253 554 42 644 126 554 b 408 648 325 554 379 586 l 408 572 m 110 777 b 259 955 110 890 170 955 b 409 788 349 955 409 894 b 259 608 409 672 348 608 b 110 777 164 608 110 668 "},"Œ":{"x_min":74.859375,"x_max":1449.578125,"ha":1574,"o":"m 160 495 b 322 844 160 634 219 761 b 573 934 394 902 481 934 b 982 495 807 934 982 755 b 573 58 982 248 807 58 b 283 184 464 58 359 102 b 160 495 202 270 160 379 m 1449 993 l 985 993 l 985 787 b 583 1016 895 938 759 1016 b 220 863 443 1016 315 962 b 74 497 126 766 74 638 b 269 84 74 331 145 183 b 575 -23 357 13 464 -23 b 985 211 751 -23 901 61 l 985 0 l 1449 0 l 1449 84 l 1067 84 l 1067 512 l 1449 512 l 1449 597 l 1067 597 l 1067 908 l 1449 908 l 1449 993 "},"˛":{"x_min":208.25,"x_max":408.328125,"ha":694,"o":"m 381 0 l 333 0 b 208 -183 253 -65 208 -113 b 355 -294 208 -261 257 -294 l 408 -294 l 408 -218 l 352 -218 b 285 -159 304 -218 285 -202 b 381 0 285 -108 318 -56 "},"ð":{"x_min":56.15625,"x_max":699.078125,"ha":772,"o":"m 593 503 b 364 602 519 569 449 602 b 56 288 204 602 56 462 b 376 -25 56 113 200 -25 b 699 337 565 -25 699 112 b 454 869 699 524 616 705 l 658 969 l 624 1026 l 397 917 b 200 1051 333 969 265 1012 l 160 989 b 322 882 212 960 266 927 l 139 794 l 170 738 l 378 837 b 593 503 491 734 564 613 m 376 52 b 145 291 247 52 145 157 b 376 530 145 424 247 530 b 607 291 506 530 607 424 b 376 52 607 157 503 52 "},"T":{"x_min":25.859375,"x_max":650.609375,"ha":690,"o":"m 294 0 l 382 0 l 382 908 l 650 908 l 650 993 l 25 993 l 25 908 l 294 908 l 294 0 "},"š":{"x_min":41.78125,"x_max":463.015625,"ha":531,"o":"m 41 106 b 248 -26 71 25 146 -26 b 463 155 383 -26 463 48 b 298 343 463 268 404 306 b 157 458 205 375 157 398 b 255 547 157 508 198 547 b 382 459 318 547 363 516 l 457 502 b 261 625 426 581 356 625 b 70 450 146 625 70 551 b 212 284 70 373 116 325 b 378 150 305 244 378 233 b 265 51 378 91 335 51 b 119 152 194 51 146 84 l 41 106 m 449 936 l 387 936 l 259 766 l 130 936 l 69 936 l 210 698 l 307 698 l 449 936 "},"Þ":{"x_min":121.140625,"x_max":635.640625,"ha":694,"o":"m 121 0 l 209 0 l 209 241 l 311 241 b 635 516 526 241 635 320 b 539 738 635 613 598 694 b 298 790 472 787 396 790 b 266 790 287 790 277 790 l 209 790 l 209 993 l 121 993 l 121 0 m 209 320 l 209 709 l 269 709 b 476 670 366 709 432 706 b 541 508 517 636 541 579 b 269 320 541 340 442 320 l 209 320 "},"j":{"x_min":93.921875,"x_max":220.5,"ha":319,"o":"m 114 -302 l 198 -302 l 198 601 l 114 601 l 114 -302 m 93 836 b 156 772 93 801 119 772 b 220 836 193 772 220 801 b 156 900 220 873 190 900 b 93 836 123 900 93 873 "},"1":{"x_min":186.46875,"x_max":447.8125,"ha":800,"o":"m 362 0 l 447 0 l 447 983 l 228 983 l 186 902 l 362 902 l 362 0 "},"›":{"x_min":29,"x_max":252,"ha":286,"o":"m 83 35 l 252 296 l 90 564 l 31 529 l 171 294 l 29 69 l 83 35 "},"ı":{"x_min":114.328125,"x_max":198.71875,"ha":319,"o":"m 114 0 l 198 0 l 198 601 l 114 601 l 114 0 "},"ä":{"x_min":55.8125,"x_max":626.109375,"ha":751,"o":"m 544 0 l 626 0 l 626 601 l 544 601 l 544 491 b 329 623 503 579 428 623 b 55 297 171 623 55 491 b 337 -26 55 102 168 -26 b 544 109 432 -26 506 20 l 544 0 m 147 294 b 347 547 147 454 227 547 b 545 309 466 547 545 459 b 345 51 545 143 464 51 b 147 294 219 51 147 137 m 187 805 b 251 740 187 768 215 740 b 317 805 288 740 317 768 b 251 872 317 840 287 872 b 187 805 217 872 187 840 m 420 805 b 485 740 420 768 449 740 b 549 805 522 740 549 768 b 485 872 549 840 521 872 b 420 805 451 872 420 840 "},"<":{"x_min":175.578125,"x_max":958.21875,"ha":1157,"o":"m 958 701 l 958 763 l 175 435 l 175 393 l 958 67 l 958 126 l 264 414 l 958 701 "},"£":{"x_min":66.6875,"x_max":732.28125,"ha":800,"o":"m 66 13 l 123 -27 b 262 56 164 29 208 56 b 539 -25 348 56 431 -25 b 732 111 623 -25 684 19 l 673 151 b 533 54 632 86 590 54 b 255 131 449 54 368 131 b 323 287 300 170 323 223 b 298 406 323 323 314 362 l 536 406 l 536 468 l 277 468 b 210 718 234 572 210 655 b 421 923 210 841 291 923 b 628 697 548 923 626 841 l 713 712 b 419 1002 707 895 597 1002 b 121 719 240 1002 121 881 b 189 468 121 651 144 566 l 66 468 l 66 406 l 219 406 b 249 268 238 356 249 312 b 195 129 249 223 231 179 b 66 13 140 112 97 73 "},"¹":{"x_min":123.859375,"x_max":295.359375,"ha":528,"o":"m 239 390 l 295 390 l 295 980 l 151 980 l 123 931 l 239 931 l 239 390 "},"t":{"x_min":17.6875,"x_max":325.3125,"ha":344,"o":"m 126 530 l 126 0 l 206 0 l 206 530 l 325 530 l 325 601 l 206 601 l 206 848 l 126 848 l 126 601 l 17 601 l 17 530 l 126 530 "},"¬":{"x_min":168.78125,"x_max":965.03125,"ha":1157,"o":"m 965 580 l 168 580 l 168 526 l 911 526 l 911 240 l 965 240 l 965 580 "},"ù":{"x_min":108.53125,"x_max":607.609375,"ha":732,"o":"m 190 601 l 108 601 l 108 258 b 358 -26 108 69 196 -26 b 607 258 521 -26 607 69 l 607 601 l 525 601 l 525 301 b 357 51 525 133 487 51 b 190 301 226 51 190 133 l 190 601 m 447 698 l 305 936 l 197 936 l 384 698 l 447 698 "},"W":{"x_min":16.390625,"x_max":1206,"ha":1247,"o":"m 352 -26 l 611 804 l 880 -26 l 1206 993 l 1114 993 l 880 207 l 611 1032 l 352 200 l 108 993 l 16 993 l 352 -26 "},"ï":{"x_min":-24.5,"x_max":337.5625,"ha":319,"o":"m 114 0 l 198 0 l 198 601 l 114 601 l 114 0 m -24 805 b 39 740 -24 768 2 740 b 104 805 76 740 104 768 b 39 872 104 840 74 872 b -24 805 5 872 -24 840 m 208 805 b 273 740 208 768 236 740 b 337 805 310 740 337 768 b 273 872 337 840 308 872 b 208 805 239 872 208 840 "},">":{"x_min":176.3125,"x_max":958.953125,"ha":1157,"o":"m 958 435 l 176 763 l 176 701 l 870 414 l 176 126 l 176 67 l 958 393 l 958 435 "},"v":{"x_min":20,"x_max":562,"ha":593,"o":"m 20 601 l 291 -26 l 562 601 l 470 601 l 291 146 l 109 601 l 20 601 "},"û":{"x_min":108.109375,"x_max":607.890625,"ha":732,"o":"m 189 601 l 108 601 l 108 258 b 358 -26 108 69 196 -26 b 607 258 522 -26 607 69 l 607 601 l 526 601 l 526 301 b 357 51 526 133 488 51 b 189 301 226 51 189 133 l 189 601 m 168 698 l 229 698 l 358 868 l 486 698 l 548 698 l 406 936 l 309 936 l 168 698 "},"Ò":{"x_min":74.671875,"x_max":1115.46875,"ha":1215,"o":"m 1115 494 b 963 865 1115 634 1062 766 b 594 1015 865 963 737 1015 b 227 865 451 1015 324 963 b 74 494 127 766 74 636 b 227 126 74 355 129 225 b 594 -26 324 27 452 -26 b 963 126 734 -26 863 27 b 1115 494 1061 223 1115 354 m 594 54 b 168 494 356 54 168 250 b 594 936 168 741 359 936 b 1021 494 831 936 1021 740 b 594 54 1021 250 832 54 m 684 1090 l 542 1327 l 434 1327 l 621 1090 l 684 1090 "},"&":{"x_min":57.171875,"x_max":857.5,"ha":889,"o":"m 760 0 l 857 0 l 690 200 b 822 390 736 255 779 318 l 764 423 b 649 259 729 363 690 311 l 409 562 b 589 804 529 640 589 708 b 397 988 589 911 510 988 b 185 811 270 988 185 909 b 261 629 185 733 219 684 l 298 579 b 57 258 137 473 57 380 b 343 -18 57 104 170 -18 b 639 145 453 -18 547 36 l 760 0 m 366 615 l 311 690 b 266 805 281 730 266 772 b 392 919 266 873 319 919 b 511 805 457 919 511 872 b 409 645 511 747 477 694 l 366 615 m 594 204 b 347 54 507 105 426 54 b 141 262 234 54 141 145 b 296 488 141 372 205 422 l 340 520 l 594 204 "},"˝":{"x_min":214,"x_max":601,"ha":694,"o":"m 214 698 l 269 698 l 417 936 l 312 936 l 214 698 m 385 698 l 441 698 l 601 936 l 497 936 l 385 698 "},"Ð":{"x_min":0,"x_max":879.28125,"ha":974,"o":"m 127 0 l 279 0 b 321 0 294 0 307 0 b 711 90 477 0 604 4 b 879 495 819 176 879 316 b 713 902 879 673 819 813 b 279 993 605 991 468 993 l 127 993 l 127 586 l 0 586 l 0 516 l 127 516 l 127 0 m 216 77 l 216 516 l 499 516 l 499 586 l 216 586 l 216 918 l 294 918 b 319 918 302 918 311 918 b 686 813 483 918 596 915 b 784 497 749 741 784 633 b 638 134 784 329 730 202 b 345 77 564 80 469 77 b 294 77 329 77 311 77 l 216 77 "},"I":{"x_min":121.140625,"x_max":209.609375,"ha":338,"o":"m 121 0 l 209 0 l 209 993 l 121 993 l 121 0 "},"G":{"x_min":74.921875,"x_max":1046.75,"ha":1135,"o":"m 918 743 l 982 800 b 566 1015 905 944 759 1015 b 74 494 277 1015 74 794 b 570 -26 74 184 275 -26 b 1046 476 865 -26 1046 163 b 1046 490 1046 480 1046 486 l 613 490 l 613 412 l 950 412 b 578 56 947 202 794 56 b 170 484 341 56 170 243 b 578 933 170 747 334 933 b 918 743 722 933 839 868 "},"`":{"x_min":178,"x_max":428,"ha":694,"o":"m 428 698 l 286 936 l 178 936 l 365 698 l 428 698 "},"·":{"x_min":127.9375,"x_max":264.0625,"ha":400,"o":"m 127 487 b 196 418 127 448 157 418 b 264 487 234 418 264 447 b 196 556 264 527 234 556 b 127 487 157 556 127 526 "},"r":{"x_min":108.890625,"x_max":450.53125,"ha":438,"o":"m 190 480 l 190 601 l 108 601 l 108 0 l 190 0 l 190 295 b 368 541 190 444 277 541 b 424 531 385 541 404 538 l 450 611 b 381 623 427 619 404 623 b 190 480 298 623 249 580 "},"¿":{"x_min":114.328125,"x_max":577.109375,"ha":714,"o":"m 498 247 b 498 243 498 245 498 244 b 340 61 498 125 439 61 b 197 205 251 61 197 119 b 359 398 197 297 259 333 b 540 627 465 466 540 515 b 353 809 540 734 464 809 b 147 620 220 809 147 743 b 147 604 147 615 147 609 l 220 604 b 220 616 220 608 220 612 b 344 737 220 693 268 737 b 457 629 412 737 457 693 b 313 463 457 550 401 520 b 114 200 189 384 114 337 b 336 -26 114 62 201 -26 b 577 225 484 -26 577 70 b 577 247 577 231 577 238 l 498 247 m 424 945 b 356 1015 424 984 394 1015 b 289 945 318 1015 289 986 b 356 876 289 905 318 876 b 424 945 394 876 424 906 "},"ý":{"x_min":29,"x_max":527,"ha":560,"o":"m 29 601 l 241 4 l 137 -302 l 222 -302 l 527 601 l 439 601 l 284 130 l 116 601 l 29 601 m 187 698 l 249 698 l 437 936 l 328 936 l 187 698 "},"x":{"x_min":0,"x_max":531,"ha":547,"o":"m 20 601 l 220 312 l 0 0 l 102 0 l 265 243 l 430 0 l 531 0 l 311 312 l 510 601 l 411 601 l 266 380 l 122 601 l 20 601 "},"è":{"x_min":58.578125,"x_max":618.921875,"ha":690,"o":"m 614 298 b 614 319 614 305 614 312 b 345 623 614 506 504 623 b 58 294 178 623 58 494 b 348 -26 58 105 175 -26 b 618 151 474 -26 559 29 l 544 193 b 348 48 499 97 436 48 b 147 298 231 48 149 141 l 614 298 m 518 369 l 152 369 b 334 543 162 475 239 543 b 518 369 443 543 511 480 m 427 698 l 285 936 l 177 936 l 364 698 l 427 698 "},"º":{"x_min":44.921875,"x_max":525.390625,"ha":582,"o":"m 283 554 b 525 781 415 554 525 654 b 283 1008 525 908 417 1008 b 44 781 151 1008 44 908 b 283 554 44 654 153 554 m 284 608 b 111 780 189 608 111 683 b 284 954 111 879 187 954 b 458 780 381 954 458 879 b 284 608 458 683 379 608 "},"Ø":{"x_min":74.734375,"x_max":1115.984375,"ha":1215,"o":"m 145 -30 l 263 94 b 587 -22 361 13 464 -22 b 925 94 717 -22 832 18 b 1115 495 1047 194 1115 337 b 981 845 1115 622 1066 751 l 1105 975 l 1058 1020 l 936 890 b 594 1016 846 973 729 1016 b 227 863 454 1016 325 961 b 74 495 127 765 74 636 b 219 138 74 356 126 227 l 101 16 l 145 -30 m 876 827 l 280 201 b 170 495 204 297 170 383 b 594 936 170 741 359 936 b 876 827 702 936 794 901 m 325 158 l 919 781 b 1022 495 989 688 1022 602 b 594 56 1022 250 830 56 b 325 158 493 56 412 88 "},"÷":{"x_min":168.78125,"x_max":965.03125,"ha":1157,"o":"m 567 715 b 502 648 532 715 502 686 b 567 580 502 611 530 580 b 632 648 604 580 632 612 b 567 715 632 686 604 715 m 965 441 l 168 441 l 168 387 l 965 387 l 965 441 m 567 248 b 502 180 532 248 502 216 b 567 113 502 141 530 113 b 632 180 604 113 632 143 b 567 248 632 216 604 248 "},"h":{"x_min":108.890625,"x_max":607.0625,"ha":724,"o":"m 108 0 l 190 0 l 190 313 b 372 548 190 469 243 548 b 524 370 477 548 524 490 l 524 0 l 607 0 l 607 408 b 394 623 607 547 525 623 b 186 508 304 623 235 586 l 186 1051 l 108 1051 l 108 0 "},".":{"x_min":127.9375,"x_max":264.0625,"ha":400,"o":"m 127 56 b 196 -12 127 18 157 -12 b 264 56 234 -12 264 16 b 196 126 264 97 234 126 b 127 56 157 126 127 95 "},";":{"x_min":86,"x_max":336.4375,"ha":431,"o":"m 220 172 l 86 -191 l 141 -218 l 317 130 l 220 172 m 200 515 b 268 445 200 476 230 445 b 336 515 306 445 336 474 b 268 584 336 555 306 584 b 200 515 230 584 200 553 "},"f":{"x_min":17.6875,"x_max":362.0625,"ha":360,"o":"m 127 0 l 209 0 l 209 530 l 338 530 l 338 601 l 209 601 l 209 829 b 288 993 209 940 223 993 b 347 976 304 993 325 987 l 362 1050 b 283 1063 334 1059 310 1063 b 127 775 138 1063 127 966 l 127 601 l 17 601 l 17 530 l 127 530 l 127 0 "},"“":{"x_min":71,"x_max":513,"ha":594,"o":"m 298 995 l 243 1016 l 71 674 l 168 628 l 298 995 m 513 995 l 458 1016 l 284 674 l 383 628 l 513 995 "},"A":{"x_min":-12,"x_max":825,"ha":829,"o":"m -12 0 l 77 0 l 207 336 l 604 336 l 728 0 l 825 0 l 415 1031 l -12 0 m 237 413 l 409 845 l 575 413 l 237 413 "},"6":{"x_min":81.671875,"x_max":698.25,"ha":800,"o":"m 259 545 l 571 976 l 499 1022 l 272 698 b 81 275 161 541 81 425 b 378 -28 81 92 197 -28 b 698 289 563 -28 698 99 b 415 595 698 474 577 595 b 259 545 359 595 311 578 m 172 281 b 392 518 172 418 258 518 b 607 293 522 518 607 421 b 390 50 607 146 519 50 b 172 281 261 50 172 138 "},"‘":{"x_min":82,"x_max":311,"ha":400,"o":"m 311 995 l 256 1016 l 82 674 l 181 628 l 311 995 "},"O":{"x_min":74.859375,"x_max":1116.109375,"ha":1215,"o":"m 1116 494 b 963 865 1116 634 1063 766 b 594 1015 865 963 737 1015 b 227 865 451 1015 325 963 b 74 494 127 766 74 636 b 227 126 74 355 129 225 b 594 -26 325 27 453 -26 b 963 126 735 -26 864 27 b 1116 494 1061 223 1116 354 m 594 54 b 168 494 356 54 168 250 b 594 936 168 741 359 936 b 1022 494 831 936 1022 740 b 594 54 1022 250 833 54 "},"n":{"x_min":108.890625,"x_max":607.0625,"ha":724,"o":"m 108 0 l 190 0 l 190 313 b 372 548 190 469 243 548 b 524 370 477 548 524 490 l 524 0 l 607 0 l 607 408 b 394 623 607 547 525 623 b 186 508 304 623 235 586 l 186 601 l 108 601 l 108 0 "},"3":{"x_min":64.53125,"x_max":681.109375,"ha":800,"o":"m 159 250 l 64 250 b 372 -26 76 72 187 -26 b 681 263 566 -26 681 91 b 496 515 681 384 614 476 b 664 745 602 547 664 633 b 383 1002 664 900 550 1002 b 104 763 227 1002 118 911 l 199 763 b 383 923 211 865 279 923 b 573 737 497 923 573 850 b 381 559 573 630 504 559 b 332 561 370 559 355 559 l 332 475 b 376 476 350 476 365 476 b 588 263 509 476 588 393 b 372 54 588 138 512 54 b 159 250 241 54 167 120 "},"9":{"x_min":81.671875,"x_max":699.609375,"ha":800,"o":"m 519 429 l 202 -1 l 274 -46 l 507 276 b 699 699 623 437 699 557 b 401 1003 699 882 582 1003 b 81 685 216 1003 81 875 b 366 380 81 500 204 380 b 519 429 421 380 468 396 m 608 693 b 387 456 608 556 521 456 b 174 682 257 456 174 554 b 390 925 174 829 261 925 b 608 693 519 925 608 836 "},"l":{"x_min":114.328125,"x_max":198.71875,"ha":319,"o":"m 198 0 l 198 1051 l 114 1051 l 114 0 l 198 0 "},"¤":{"x_min":62.609375,"x_max":763.578125,"ha":842,"o":"m 238 816 l 100 956 l 62 916 l 200 777 b 138 600 159 725 138 663 b 200 422 138 536 159 475 l 62 283 l 100 243 l 238 383 b 412 320 289 341 347 320 b 588 383 476 320 536 341 l 724 243 l 763 283 l 626 422 b 687 600 666 475 687 534 b 626 777 687 663 666 725 l 763 916 l 724 956 l 588 816 b 412 880 534 859 476 880 b 238 816 348 880 291 859 m 634 601 b 413 376 634 477 536 376 b 193 601 291 376 193 477 b 413 825 193 723 291 825 b 634 601 536 825 634 725 "},"4":{"x_min":40.828125,"x_max":666.953125,"ha":800,"o":"m 479 0 l 567 0 l 567 251 l 666 251 l 666 329 l 567 329 l 567 1017 l 40 251 l 479 251 l 479 0 m 479 329 l 172 329 l 480 776 l 479 329 "},"p":{"x_min":108.890625,"x_max":675.109375,"ha":751,"o":"m 108 -302 l 187 -302 l 187 111 b 402 -26 234 20 307 -26 b 675 298 562 -26 675 93 b 398 623 675 494 564 623 b 187 488 307 623 231 573 l 187 601 l 108 601 l 108 -302 m 586 297 b 398 51 586 138 514 51 b 189 304 280 51 189 141 b 390 547 189 461 269 547 b 586 297 513 547 586 452 "},"‡":{"x_min":66.6875,"x_max":627.46875,"ha":707,"o":"m 304 -302 l 386 -302 l 386 26 l 627 26 l 627 102 l 386 102 l 386 591 l 627 591 l 627 668 l 386 668 l 386 993 l 304 993 l 304 668 l 66 668 l 66 591 l 304 591 l 304 102 l 66 102 l 66 26 l 304 26 l 304 -302 "},"à":{"x_min":55.921875,"x_max":625.78125,"ha":751,"o":"m 544 0 l 625 0 l 625 601 l 544 601 l 544 491 b 329 623 503 579 428 623 b 55 297 171 623 55 491 b 337 -26 55 102 168 -26 b 544 109 432 -26 506 20 l 544 0 m 147 294 b 346 547 147 454 227 547 b 545 309 466 547 545 459 b 345 51 545 143 463 51 b 147 294 219 51 147 137 m 457 698 l 315 936 l 207 936 l 394 698 l 457 698 "},"Ü":{"x_min":117.0625,"x_max":824.828125,"ha":961,"o":"m 117 993 l 117 373 b 470 -26 117 105 232 -26 b 824 373 709 -26 824 105 l 824 993 l 736 993 l 736 344 b 470 54 736 150 650 54 b 204 344 289 54 204 150 l 204 993 l 117 993 m 289 1197 b 353 1131 289 1159 317 1131 b 419 1197 390 1131 419 1159 b 353 1263 419 1231 389 1263 b 289 1197 319 1263 289 1231 m 522 1197 b 588 1131 522 1159 551 1131 b 651 1197 624 1131 651 1159 b 588 1263 651 1231 623 1263 b 522 1197 553 1263 522 1231 "},"ó":{"x_min":59.609375,"x_max":698.890625,"ha":775,"o":"m 376 -26 b 698 300 553 -26 698 118 b 376 623 698 480 556 623 b 59 300 201 623 59 480 b 376 -26 59 116 203 -26 m 379 51 b 148 298 251 51 148 159 b 379 545 148 438 250 545 b 610 298 507 545 610 438 b 379 51 610 158 505 51 m 291 698 l 353 698 l 541 936 l 432 936 l 291 698 "}}}
